<mxfile host="app.diagrams.net" modified="2023-11-11T14:24:01.548Z" agent="Mozilla/5.0 (Macintosh; Intel Mac OS X 10_15_7) AppleWebKit/605.1.15 (KHTML, like Gecko) Version/16.6 Safari/605.1.15" version="22.1.0" etag="2CAAasbeExM_nNNuC299" type="github">
  <diagram name="Page-1" id="hc0cmi0Zw7IhH53E_yqD">
    <mxGraphModel>
      <root>
        <mxCell id="0" />
        <mxCell id="1" parent="0" />
      </root>
    </mxGraphModel>
  </diagram>
</mxfile>
